<?xml version="1.0" standalone="no"?>
<!DOCTYPE svg PUBLIC "-//W3C//DTD SVG 20010904//EN"
 "http://www.w3.org/TR/2001/REC-SVG-20010904/DTD/svg10.dtd">
<svg version="1.0" xmlns="http://www.w3.org/2000/svg"
 width="480.000000pt" height="480.000000pt" viewBox="0 0 480.000000 480.000000"
 preserveAspectRatio="xMidYMid meet">
<metadata>
Created by potrace 1.14, written by Peter Selinger 2001-2017
</metadata>
<g transform="translate(0.000000,480.000000) scale(0.100000,-0.100000)"
fill="#000000" stroke="none">
<path d="M0 4080 l0 -720 1101 2 1101 3 206 483 207 482 16 -37 c8 -21 145
-399 305 -840 159 -442 292 -803 296 -803 3 0 138 160 299 355 l292 355 488 0
489 0 0 720 0 720 -2400 0 -2400 0 0 -720z"/>
<path d="M2315 2837 l-271 -632 -192 -3 c-106 -1 -192 -5 -192 -7 0 -6 127
-498 136 -527 5 -17 29 -18 312 -18 l307 1 292 355 292 355 -28 77 c-15 42
-106 292 -201 555 -95 262 -175 477 -179 477 -3 0 -128 -285 -276 -633z"/>
<path d="M0 1748 c0 -716 2 -1299 4 -1297 2 2 150 339 329 749 179 410 429
984 557 1275 128 292 236 540 241 553 l9 22 -570 0 -570 0 0 -1302z"/>
<path d="M1471 3023 c-7 -16 -121 -275 -253 -578 -132 -302 -411 -941 -620
-1420 -209 -478 -396 -905 -414 -947 l-33 -78 2324 0 2325 0 0 670 0 670 -717
2 -716 3 -120 333 c-67 182 -124 332 -127 332 -3 0 -129 -151 -280 -335 l-275
-334 -504 2 -504 2 -13 45 c-25 92 -284 1101 -284 1111 0 5 113 9 288 9 l287
0 113 263 c61 144 112 265 112 270 0 4 -130 7 -288 7 l-289 0 -12 -27z"/>
<path d="M3663 2675 l-310 -376 117 -322 116 -322 607 -3 607 -2 0 700 0 700
-414 0 -414 0 -309 -375z"/>
</g>
</svg>
